<svg xmlns="http://www.w3.org/2000/svg" viewBox="0 0 64 64">
  <defs><linearGradient id="g" x1="8" y1="6" x2="54" y2="60" gradientUnits="userSpaceOnUse"><stop stop-color="#5be7c4"/><stop offset="1" stop-color="#5e8cff"/></linearGradient></defs>
  <rect width="64" height="64" rx="17" fill="#111a27"/>
  <path d="M20 49h27l-3-7H23l-3 7Zm6-10h15l-2-5c4-3 6-7 6-12 0-7-5-12-12-12S21 15 21 22c0 5 2 9 7 12l-2 5Zm7-24c4 0 7 3 7 7 0 3-1 6-4 8h-6c-3-2-4-5-4-8 0-4 3-7 7-7Z" fill="url(#g)"/>
  <circle cx="33" cy="22" r="3" fill="#111a27"/>
</svg>
